<?xml version="1.0" encoding="UTF-8"?>
<svg xmlns="http://www.w3.org/2000/svg" xmlns:xlink="http://www.w3.org/1999/xlink" width="32pt" height="103pt" viewBox="0 0 32 103" version="1.1">
<g id="surface121614">
<rect x="0" y="0" width="32" height="103" style="fill:rgb(100%,100%,100%);fill-opacity:1;stroke:none;"/>
<path style=" stroke:none;fill-rule:evenodd;fill:rgb(0%,0%,0%);fill-opacity:1;" d="M 1 93.40625 C 1 88.882812 3.148438 84.878906 7.449219 81.398438 C 11.75 77.832031 16.300781 76.046875 21.105469 76.046875 C 23.890625 76.046875 26.375 76.789062 28.570312 78.265625 C 28.570312 52.511719 28.570312 26.753906 28.570312 1 C 29.496094 1 30.421875 1 31.351562 1 C 31.351562 29.148438 31.351562 57.296875 31.351562 85.445312 C 31.351562 90.316406 29.285156 94.363281 25.152344 97.582031 C 21.023438 100.800781 16.46875 102.414062 11.496094 102.414062 C 8.714844 102.414062 6.269531 101.585938 4.160156 99.933594 C 2.054688 98.191406 1 96.015625 1 93.40625 Z M 1 93.40625 "/>
</g>
</svg>
