<?xml version="1.0" encoding="UTF-8"?>
<svg xmlns="http://www.w3.org/2000/svg" xmlns:xlink="http://www.w3.org/1999/xlink" width="40pt" height="73pt" viewBox="0 0 40 73" version="1.1">
<g id="surface14295">
<rect x="0" y="0" width="40" height="73" style="fill:rgb(100%,100%,100%);fill-opacity:1;stroke:none;"/>
<path style=" stroke:none;fill-rule:evenodd;fill:rgb(0%,0%,0%);fill-opacity:1;" d="M 20.351562 1 C 20.351562 19.363281 20.351562 37.726562 20.351562 56.089844 C 18.730469 53.773438 12.128906 53.425781 7.5 55.972656 C 2.015625 58.996094 -0.484375 64.660156 1.90625 68.632812 C 4.300781 72.601562 10.683594 73.386719 16.167969 70.363281 C 19.460938 68.550781 21.65625 65.777344 22.382812 62.996094 C 22.722656 61.464844 22.523438 60.675781 22.5 59.601562 C 22.5 46.625 22.5 33.652344 22.5 20.679688 C 46.5625 26.773438 35.460938 47.890625 33.292969 55.347656 C 53.0625 28.363281 22.769531 17.355469 22.5 1 C 21.785156 1 21.066406 1 20.351562 1 M 20.351562 1 Z M 20.351562 1 "/>
</g>
</svg>
