<?xml version="1.0" encoding="UTF-8"?>
<svg xmlns="http://www.w3.org/2000/svg" xmlns:xlink="http://www.w3.org/1999/xlink" width="56pt" height="97pt" viewBox="0 0 56 97" version="1.1">
<g id="surface172070">
<rect x="0" y="0" width="56" height="97" style="fill:rgb(100%,100%,100%);fill-opacity:1;stroke:none;"/>
<path style=" stroke:none;fill-rule:evenodd;fill:rgb(0%,0%,0%);fill-opacity:1;" d="M 26.765625 1 C 26.765625 25.6875 26.765625 50.375 26.765625 75.0625 C 24.890625 72.519531 17.007812 70.863281 10.203125 75.21875 C 3.398438 79.574219 -0.683594 86.851562 1.671875 91.15625 C 4.363281 96.066406 13.308594 98.699219 20.421875 93.59375 C 25.566406 89.902344 28.039062 85.160156 28.828125 83.75 C 28.828125 68.863281 28.828125 53.980469 28.828125 39.09375 C 47.90625 50.75 58.257812 54.085938 48.640625 80.40625 C 67.015625 52.328125 44.101562 48.640625 28.828125 21.09375 C 28.828125 20.394531 28.828125 19.699219 28.828125 19 C 54.695312 32.117188 49.503906 44.390625 51.828125 51.125 C 58.261719 24.164062 35.167969 21.4375 28.828125 2.3125 C 28.828125 1.925781 28.828125 1.542969 28.828125 1.15625 C 28.140625 1.105469 27.453125 1.050781 26.765625 1 Z M 26.765625 1 "/>
</g>
</svg>
