<?xml version="1.0" encoding="UTF-8"?>
<svg xmlns="http://www.w3.org/2000/svg" xmlns:xlink="http://www.w3.org/1999/xlink" width="57pt" height="112pt" viewBox="0 0 57 112" version="1.1">
<g id="surface202166">
<rect x="0" y="0" width="57" height="112" style="fill:rgb(100%,100%,100%);fill-opacity:1;stroke:none;"/>
<path style=" stroke:none;fill-rule:evenodd;fill:rgb(0%,0%,0%);fill-opacity:1;" d="M 27.230469 1 L 27.421875 89.597656 C 25.5 87.027344 17.414062 85.351562 10.4375 89.757812 C 3.460938 94.164062 -0.726562 101.53125 1.6875 105.882812 C 4.449219 110.855469 13.621094 113.515625 20.917969 108.351562 C 26.191406 104.617188 28.730469 99.816406 29.535156 98.390625 L 29.535156 53.203125 C 48.910156 65.824219 58.4375 68.246094 48.574219 94.878906 C 58.253906 82.539062 57.558594 74.578125 52.480469 66.328125 C 53.238281 60.777344 53.277344 56.523438 52.769531 53.109375 C 58.316406 21.445312 38.753906 24.167969 29.535156 4.257812 L 29.535156 1.15625 L 27.230469 1 M 29.535156 19.433594 C 48.996094 29.792969 50.785156 39.949219 51.296875 47.765625 C 47.527344 39.117188 38.472656 36.480469 29.535156 22.121094 L 29.535156 19.433594 M 29.535156 34.992188 C 49.257812 51.554688 49.183594 47.644531 51.550781 64.871094 C 46.167969 56.847656 37.011719 48.292969 29.535156 34.992188 Z M 29.535156 34.992188 "/>
<path style=" stroke:none;fill-rule:evenodd;fill:rgb(100%,100%,100%);fill-opacity:1;" d="M 6.074219 107.242188 C 10.539062 107.242188 15.050781 105.285156 19.605469 101.367188 C 24.242188 97.453125 26.558594 94.539062 26.558594 92.625 C 26.558594 91.40625 26.054688 90.796875 25.042969 90.796875 C 21.921875 90.796875 17.621094 92.667969 12.144531 96.410156 C 6.746094 100.0625 4.050781 103.109375 4.050781 105.546875 C 4.050781 106.675781 4.722656 107.242188 6.074219 107.242188 Z M 6.074219 107.242188 "/>
</g>
</svg>
