<?xml version="1.0" encoding="UTF-8"?>
<svg xmlns="http://www.w3.org/2000/svg" xmlns:xlink="http://www.w3.org/1999/xlink" viewBox="0 0 30 53" version="1.1">
<g id="surface38056">
<rect x="0" y="0" width="30" height="53" style="fill:rgb(100%,100%,100%);fill-opacity:1;stroke:none;"/>
<path style=" stroke:none;fill-rule:evenodd;fill:rgb(0%,0%,0%);fill-opacity:1;" d="M 15.359375 1.707031 C 15.359375 14.660156 15.359375 27.617188 15.359375 40.574219 C 14.214844 38.941406 9.558594 38.695312 6.292969 40.492188 C 2.421875 42.625 0.660156 46.621094 2.34375 49.425781 C 4.035156 52.222656 8.539062 52.777344 12.40625 50.644531 C 14.730469 49.367188 16.28125 47.410156 16.792969 45.445312 C 17.03125 44.367188 16.890625 43.808594 16.875 43.050781 C 16.875 33.898438 16.875 24.742188 16.875 15.589844 C 33.851562 19.890625 26.019531 34.789062 24.488281 40.050781 C 38.4375 21.011719 17.066406 13.246094 16.875 1.707031 C 16.371094 1.707031 15.863281 1.707031 15.359375 1.707031 M 15.359375 1.707031 Z M 15.359375 1.707031 "/>
<path style=" stroke:none;fill-rule:evenodd;fill:rgb(100%,100%,100%);fill-opacity:1;" d="M 4.378906 49.546875 C 6.796875 49.546875 9.234375 48.578125 11.695312 46.636719 C 14.203125 44.695312 15.457031 43.25 15.457031 42.304688 C 15.457031 41.699219 15.179688 41.398438 14.632812 41.398438 C 12.949219 41.398438 10.625 42.324219 7.660156 44.179688 C 4.746094 45.992188 3.285156 47.5 3.285156 48.707031 C 3.285156 49.265625 3.652344 49.546875 4.378906 49.546875 Z M 4.378906 49.546875 "/>
</g>
</svg>
