<?xml version="1.0" encoding="UTF-8"?>
<svg xmlns="http://www.w3.org/2000/svg" xmlns:xlink="http://www.w3.org/1999/xlink" width="56pt" height="97pt" viewBox="0 0 56 97" version="1.1">
<g id="surface185733">
<rect x="0" y="0" width="56" height="97" style="fill:rgb(100%,100%,100%);fill-opacity:1;stroke:none;"/>
<path style=" stroke:none;fill-rule:evenodd;fill:rgb(0%,0%,0%);fill-opacity:1;" d="M 27.019531 1 C 27.019531 25.75 27.019531 50.503906 27.019531 75.253906 C 25.125 72.707031 17.164062 71.046875 10.292969 75.410156 C 3.421875 79.777344 -0.703125 87.078125 1.679688 91.390625 C 4.394531 96.316406 13.429688 98.949219 20.613281 93.835938 C 25.808594 90.132812 28.308594 85.378906 29.101562 83.964844 C 29.101562 69.039062 29.101562 54.117188 29.101562 39.191406 C 48.371094 50.878906 58.824219 54.222656 49.109375 80.613281 C 67.667969 52.460938 44.527344 48.761719 29.101562 21.144531 C 29.101562 20.445312 29.101562 19.746094 29.101562 19.046875 C 55.222656 32.199219 49.984375 44.503906 52.328125 51.253906 C 58.828125 24.222656 35.503906 21.492188 29.101562 2.316406 C 29.101562 1.929688 29.101562 1.542969 29.101562 1.15625 C 28.40625 1.105469 27.714844 1.050781 27.019531 1 Z M 27.019531 1 "/>
<path style=" stroke:none;fill-rule:evenodd;fill:rgb(100%,100%,100%);fill-opacity:1;" d="M 5.9375 92.664062 C 10.40625 92.664062 14.914062 90.707031 19.46875 86.792969 C 24.105469 82.875 26.421875 79.960938 26.421875 78.046875 C 26.421875 76.828125 25.917969 76.21875 24.90625 76.21875 C 21.785156 76.21875 17.488281 78.089844 12.007812 81.832031 C 6.609375 85.488281 3.914062 88.53125 3.914062 90.96875 C 3.914062 92.101562 4.585938 92.664062 5.9375 92.664062 Z M 5.9375 92.664062 "/>
</g>
</svg>
